<?xml version="1.0" encoding="utf-8"?>
<!-- Generator: Adobe Illustrator 25.4.1, SVG Export Plug-In . SVG Version: 6.00 Build 0)  -->
<svg version="1.0" id="Calque_1" xmlns="http://www.w3.org/2000/svg" xmlns:xlink="http://www.w3.org/1999/xlink" x="0px" y="0px"
	 viewBox="0 0 474.09 94.93" style="enable-background:new 0 0 474.09 94.93;" xml:space="preserve">
<style type="text/css">
	.st0{fill:#FFFFFF;stroke:#FFFFFF;stroke-width:2;stroke-miterlimit:10;}
	.st1{fill:none;stroke:#FFFFFF;stroke-width:5;stroke-miterlimit:10;}
	.st2{fill:#FFFFFF;}
</style>
<g>
	<path class="st0" d="M103.1,90.34c0.31-2.21,0.37-5.08,0.16-8.6c0-0.45-0.03-1.13-0.08-2.04c-0.16-2.18-0.24-3.83-0.24-4.94
		c-0.05-1.87,0-3.56,0.16-5.06c0-0.06,0-0.13,0-0.21c0.1-1.02,0.18-1.77,0.24-2.26c0.1-1.16,0.16-2.18,0.16-3.06
		c0-0.62,0.03-1.29,0.08-2c0-0.23,0-0.44,0-0.64c0.05-0.06,0.08-0.11,0.08-0.17c0-0.03,0-0.06,0-0.09c0-0.43,0.33-0.75,0.99-0.98
		c0.66-0.23,1.35-0.28,2.09-0.17c0.42,0.08,0.81,0.23,1.18,0.43c0.21,0.11,0.39,0.24,0.55,0.38c0.26,0.23,0.52,0.5,0.79,0.81
		c0.37,0.54,0.79,1.29,1.26,2.26c0.68,1.53,1.55,3.75,2.6,6.64c0.31,1.02,0.71,2.18,1.18,3.49c0.05,0.11,0.17,0.46,0.35,1.04
		c0.18,0.58,0.41,1.28,0.67,2.11c0.26,0.82,0.5,1.53,0.71,2.13c0.47-1.48,1.05-3.18,1.73-5.11c0.26-0.82,0.58-1.69,0.95-2.6
		c0.26-0.77,0.68-1.92,1.26-3.47c0.58-1.55,1.12-2.94,1.62-4.19c0.5-1.25,0.75-1.9,0.75-1.96c0.21-0.6,0.45-1.05,0.71-1.36
		c0.16-0.26,0.34-0.45,0.55-0.6c0.58-0.4,1.29-0.59,2.13-0.57c0.84,0.01,1.52,0.21,2.05,0.57c0.21,0.14,0.39,0.31,0.55,0.51
		c0.21,0.26,0.37,0.58,0.47,0.98c0.47,1.3,0.71,2.65,0.71,4.04v9.58c0,3.92,0.21,7.39,0.63,10.43c0.21,1.25,0.31,3.02,0.31,5.32
		c0,0.37-0.24,0.67-0.71,0.91c-0.47,0.24-1.04,0.36-1.69,0.36c-0.66,0-1.21-0.12-1.65-0.36c-0.45-0.24-0.67-0.55-0.67-0.91
		c0-2.24-0.11-3.96-0.32-5.15c-0.42-3.09-0.63-6.62-0.63-10.6v-6.94c-0.68,1.79-1.18,3.08-1.5,3.87c-0.31,0.91-0.63,1.77-0.95,2.6
		c-2.1,6.02-3.13,9.97-3.07,11.88c0,0.37-0.22,0.67-0.67,0.91c-0.45,0.24-1.01,0.38-1.69,0.4c-0.42,0-0.82-0.06-1.18-0.17
		c-0.95-0.14-1.52-0.45-1.73-0.94c-0.47-0.88-1.13-2.55-1.97-5.02c-0.11-0.4-0.34-1.15-0.71-2.26c-0.37-1.11-0.72-2.18-1.06-3.24
		c-0.34-1.05-0.54-1.63-0.59-1.74c-0.47-1.3-0.87-2.45-1.18-3.45c-0.21-0.6-0.42-1.15-0.63-1.66c0,0.06,0,0.1,0,0.13
		c0,0.06,0,0.11,0,0.15s0,0.08,0,0.11c-0.16,1.42-0.21,3.04-0.16,4.85c0,1.08,0.08,2.72,0.24,4.94c0.05,0.88,0.08,1.55,0.08,2
		c0.21,3.6,0.16,6.55-0.16,8.85c-0.05,0.37-0.33,0.67-0.83,0.89c-0.5,0.23-1.08,0.33-1.73,0.3c-0.66-0.03-1.2-0.18-1.62-0.45
		C103.23,90.99,103.04,90.68,103.1,90.34z"/>
	<path class="st0" d="M165.42,87.06c-0.05,0-0.11,0.01-0.16,0.04c-2.15,0.11-5.49,0.19-10.01,0.21c-0.21,0-0.53,0.01-0.95,0.04
		c-2.68,0.03-4.62,0.06-5.83,0.08c-0.37,0.85-0.68,1.65-0.95,2.38c-0.16,0.34-0.51,0.61-1.06,0.81c-0.55,0.2-1.14,0.26-1.77,0.19
		c-0.63-0.07-1.13-0.26-1.5-0.55c-0.37-0.3-0.47-0.62-0.32-0.96c0.63-1.7,1.55-3.86,2.76-6.47c0.47-0.96,1.02-2.14,1.65-3.53
		c0.1-0.2,0.39-0.8,0.87-1.81c0.47-1.01,0.76-1.61,0.87-1.81c0.42-0.94,0.81-1.76,1.18-2.47c2.26-4.85,3.89-8.71,4.88-11.58v-0.04
		c-0.11-0.37,0.04-0.69,0.43-0.96c0.39-0.27,0.91-0.43,1.54-0.49c0.84-0.09,1.52,0.04,2.05,0.38c0.63,0.31,0.89,0.7,0.79,1.15
		c1.58,5.59,4.31,12.56,8.19,20.9c0.21,0.48,0.68,1.4,1.42,2.77c0.31,0.71,0.58,1.28,0.79,1.7c0.58,1.13,1,2.11,1.26,2.94
		c0.11,0.34-0.03,0.65-0.39,0.94c-0.37,0.28-0.88,0.46-1.54,0.53c-0.66,0.07-1.25,0-1.77-0.21c-0.53-0.21-0.84-0.49-0.95-0.83
		c-0.26-0.77-0.66-1.67-1.18-2.72C165.68,87.5,165.58,87.29,165.42,87.06z M164.16,84.6c-0.21-0.48-0.42-0.94-0.63-1.36
		c-2.31-4.99-4.39-9.97-6.22-14.94c-0.68,1.59-1.52,3.45-2.52,5.58c-0.31,0.71-0.71,1.52-1.18,2.43c-0.11,0.23-0.39,0.84-0.87,1.85
		c-0.47,1.01-0.76,1.61-0.87,1.81c-0.63,1.39-1.18,2.55-1.65,3.49c-0.21,0.51-0.42,0.98-0.63,1.41c1-0.03,2.55-0.04,4.65-0.04
		c0.42,0,0.73-0.01,0.95-0.04C159.27,84.74,162.27,84.68,164.16,84.6z"/>
	<path class="st0" d="M188.66,63.1c0,0.94-0.13,3.39-0.39,7.36c-0.16,2.44-0.26,4.44-0.31,6c-0.26,7.01,0.24,11.55,1.5,13.62
		c0.21,0.31,0.16,0.62-0.16,0.94c-0.32,0.31-0.78,0.53-1.38,0.64c-0.6,0.11-1.2,0.09-1.77-0.06c-0.58-0.16-0.97-0.4-1.18-0.75
		c-1.42-2.33-2-7.14-1.73-14.43c0.05-1.59,0.16-3.6,0.32-6.04c0.26-3.94,0.39-6.37,0.39-7.28c0-0.37,0.22-0.67,0.67-0.91
		c0.45-0.24,1-0.36,1.65-0.36c0.66,0,1.22,0.12,1.69,0.36C188.42,62.43,188.66,62.73,188.66,63.1z"/>
	<path class="st0" d="M215.45,63.74c-1.16-0.71-2.31-1.06-3.47-1.06c-1.05-0.03-2.02,0.23-2.92,0.77c-1.1,0.65-1.84,1.5-2.21,2.55
		c-0.42,1.19-0.29,2.43,0.39,3.7c0.26,0.48,0.87,1.04,1.81,1.66c0.58,0.37,1.42,0.84,2.52,1.4c0,0.03,0.43,0.26,1.3,0.7
		c0.87,0.44,1.43,0.73,1.69,0.87c3.1,1.67,5.3,3.21,6.62,4.6c2,2.1,2.65,4.36,1.97,6.77c-0.37,1.3-0.89,2.33-1.58,3.06
		c-1.16,1.31-2.97,2.24-5.44,2.81c-2,0.48-4.02,0.64-6.07,0.47c-1.63-0.14-3.23-0.48-4.81-1.02c-1.1-0.4-2.15-0.89-3.15-1.49
		c-0.58-0.34-1.13-0.71-1.65-1.11c-0.37-0.31-0.5-0.64-0.39-0.98c0.1-0.34,0.42-0.61,0.95-0.81c0.52-0.2,1.11-0.27,1.77-0.21
		c0.66,0.06,1.17,0.23,1.54,0.51c1.1,0.82,2.29,1.48,3.55,1.96c2.1,0.74,4.23,0.85,6.38,0.34c1.37-0.31,2.39-0.84,3.07-1.57
		c0.47-0.54,0.87-1.32,1.18-2.34c0.52-1.87,0.03-3.6-1.5-5.19c-1.1-1.19-3.02-2.51-5.75-3.96c-0.26-0.14-0.81-0.43-1.65-0.87
		c-0.84-0.44-1.29-0.67-1.34-0.7c-1.21-0.62-2.15-1.16-2.84-1.62c-1.31-0.88-2.21-1.72-2.68-2.51c-0.95-1.67-1.16-3.3-0.63-4.87
		c0.52-1.58,1.68-2.87,3.47-3.9c1.84-1.08,3.99-1.6,6.46-1.57c2.57,0,4.88,0.64,6.93,1.92c0.47,0.28,0.68,0.6,0.63,0.94
		c-0.05,0.34-0.33,0.63-0.83,0.87c-0.5,0.24-1.08,0.35-1.73,0.32C216.41,64.14,215.87,63.99,215.45,63.74z"/>
	<path class="st0" d="M249.01,92.26c-2.42,0.14-4.65-0.16-6.7-0.89c-1.89-0.71-3.52-1.77-4.88-3.19c-2.42-2.47-3.83-5.66-4.25-9.58
		c-0.42-3.83,0.24-7.29,1.97-10.38c1.94-3.6,4.99-5.86,9.14-6.77c3.05-0.65,5.8-0.74,8.27-0.28c2.47,0.47,4.54,1.44,6.22,2.92
		c2.73,2.38,4.18,5.7,4.33,9.96c0.16,4.06-0.81,7.77-2.91,11.15c-2.47,3.92-5.88,6.26-10.24,7.02
		C249.64,92.27,249.33,92.28,249.01,92.26z M248.85,89.7c2.73-0.6,5.02-2.37,6.85-5.32c1.94-3.09,2.84-6.51,2.68-10.26
		c-0.16-3.83-1.37-6.74-3.62-8.72c-2.1-1.87-4.99-2.41-8.67-1.62c-2.73,0.62-4.88,2.34-6.46,5.15c-1.52,2.81-2.1,5.97-1.73,9.49
		c0.37,3.55,1.6,6.4,3.7,8.55c1,1.05,2.13,1.8,3.39,2.26C246.15,89.66,247.43,89.82,248.85,89.7z"/>
	<path class="st0" d="M274.54,91.53c0-0.71-0.03-1.67-0.08-2.89c-0.21-4.79-0.31-8.33-0.31-10.6c0.05-2.61,0.18-5.04,0.39-7.28
		c0-0.06,0-0.13,0-0.21c0.1-1.02,0.18-1.77,0.24-2.26c0.1-1.16,0.16-2.18,0.16-3.06c0-0.62,0.03-1.29,0.08-2c0-0.23,0-0.44,0-0.64
		c0.05-0.06,0.08-0.11,0.08-0.17c0-0.03,0-0.06,0-0.08c0-0.43,0.33-0.75,0.98-0.98c0.66-0.23,1.35-0.28,2.09-0.17
		c0.68,0.11,1.31,0.4,1.89,0.85c0.32,0.23,0.68,0.55,1.1,0.98c0.68,0.74,1.58,1.76,2.68,3.06c1.84,2.3,4.1,5.32,6.78,9.07
		c1.84,2.64,3.65,5.29,5.44,7.96c-0.16-2.07-0.24-4.38-0.24-6.94v-4.81v-4.77c0-0.09,0-0.2,0-0.34c0-0.03,0-0.07,0-0.13
		c0-0.06,0-0.13,0-0.21v-0.08c0.05-0.96,0.05-1.75,0-2.34c0-0.43-0.04-0.81-0.12-1.17c-0.08-0.36,0.09-0.67,0.51-0.94
		c0.42-0.27,0.96-0.42,1.62-0.45c0.66-0.03,1.23,0.07,1.73,0.3c0.5,0.23,0.78,0.51,0.83,0.85c0.05,0.4,0.1,0.84,0.16,1.32
		c0.05,0.65,0.05,1.48,0,2.47V66c0,0.06,0,0.11,0,0.17c0,0.06,0,0.1,0,0.13c0,0.14,0,0.24,0,0.3v4.77v4.81
		c0,3.89,0.21,7.35,0.63,10.38c0.21,1.28,0.31,3.07,0.31,5.36c0,0.34-0.24,0.64-0.71,0.89c-0.47,0.26-1.02,0.38-1.65,0.38
		c-1.05,0-1.79-0.26-2.21-0.77c-0.11-0.11-0.18-0.23-0.24-0.34c-1.37-2.75-4.86-8.1-10.48-16.05c-2.57-3.63-4.78-6.57-6.62-8.81
		c0,0.37-0.03,0.77-0.08,1.19c-0.05,0.48-0.13,1.23-0.24,2.26c0,0.09,0,0.17,0,0.26c-0.21,2.18-0.34,4.55-0.39,7.11
		c0,2.27,0.11,5.78,0.32,10.51c0.05,1.25,0.08,2.21,0.08,2.89c0,0.37-0.22,0.68-0.67,0.94c-0.45,0.26-1,0.38-1.65,0.38
		c-0.66,0-1.22-0.12-1.69-0.36C274.77,92.16,274.54,91.87,274.54,91.53z"/>
</g>
<g>
	<g>
		<path class="st1" d="M13.86,16.4C21.39,8.22,33.19,2.5,46.28,2.5c12.99,0,24.56,5.12,32.08,13.11"/>
		<g>
			<g>
				<path class="st1" d="M62.18,27.5c-1.46-3.46-4.46-6.21-7.87-8.35c-4.85-3.04-10.76-3.94-15.51-1.91
					c-4.97,2.12-9.37,5.67-11.31,10.26c-1.12,2.66-1.57,5.66-1.66,8.54"/>
				<path class="st1" d="M26.57,30.48c0.39-1.82,1.35-4.07-0.06-5.73c-1.76-2.07-4.1-3.68-6.46-5.15c-2.5-1.55-5.08-2.96-7.93-3.93
					c-2.62-0.89-6.09-1.64-8.36,0.34c-1.83,1.6-1.34,4.06-0.71,6.04c2.45,7.69,3.8,15.53,3.29,23.54
					c-0.4,6.26-1.38,12.48-1.74,18.74c-0.17,2.92,0.12,5.98,0.93,8.8c2.59,8.97,9.66,14.2,18.82,17.31
					c6.66,2.26,13.94,2.09,20.89,1.89c6.67-0.19,13.58,0.31,20.03-1.89c9.16-3.11,16.23-8.34,18.82-17.31
					c0.81-2.82,1.1-5.88,0.93-8.8c-0.35-6.26-1.33-12.48-1.74-18.74c-0.52-8.01,0.84-15.85,3.29-23.54
					c0.63-1.98,1.12-4.44-0.71-6.04c-2.26-1.98-5.74-1.24-8.36-0.34c-2.85,0.97-5.43,2.37-7.93,3.93c-2.36,1.47-4.7,3.08-6.46,5.15
					c-1.41,1.66-0.44,3.91-0.06,5.73c0.39,1.83,0.61,3.7,0.7,5.56"/>
			</g>
		</g>
	</g>
</g>
<g>
	<path class="st2" d="M132.41,26.99c3.61,0.56,6.47,1.88,8.58,3.97c2.11,2.09,3.16,4.65,3.16,7.71c0,4-1.84,7.16-5.51,9.48
		c-3.68,2.32-9.43,3.48-17.25,3.48h-17.47c-1.07,0-1.61-0.45-1.61-1.35v-0.26c0-0.56,0.44-1.43,1.32-2.61
		c0.88-1.18,1.32-2.35,1.32-3.51v-30.3c0-1.16-0.44-2.33-1.32-3.51c-0.88-1.18-1.32-2.05-1.32-2.61V7.19c0-0.9,0.54-1.35,1.61-1.35
		h18.76c5.67,0,9.91,1.09,12.7,3.26c2.79,2.17,4.19,4.98,4.19,8.41c0,2.36-0.64,4.38-1.93,6.06
		C136.34,25.25,134.6,26.39,132.41,26.99z M118.03,14.48v6.9c0,1.12,0.34,2,1.03,2.64c0.69,0.64,1.61,0.97,2.77,0.97h2.19
		c1.29,0,2.33-0.5,3.13-1.52c0.79-1.01,1.19-2.37,1.19-4.09c0-2.66-0.56-4.75-1.68-6.25c-1.12-1.5-2.6-2.26-4.45-2.26h-0.84
		C119.15,10.87,118.03,12.07,118.03,14.48z M125.64,46.59c1.33,0,2.43-0.57,3.29-1.71c0.86-1.14,1.29-2.57,1.29-4.29
		c0-2.54-0.98-4.94-2.93-7.22c-1.96-2.28-4.59-3.42-7.9-3.42h-1.35v10.51c0,1.76,0.49,3.22,1.48,4.38c0.99,1.16,2.3,1.74,3.93,1.74
		H125.64z"/>
	<path class="st2" d="M169.49,52.26c-6.1,0-11.42-2.15-15.96-6.45c-4.54-4.3-6.8-9.89-6.8-16.76c0-7.13,2.08-12.9,6.25-17.28
		c4.17-4.38,9.67-6.58,16.51-6.58c6.19,0,11.55,2.24,16.09,6.71c4.53,4.47,6.8,10.19,6.8,17.15c0,6.96-2.19,12.57-6.58,16.83
		C181.41,50.14,175.98,52.26,169.49,52.26z M173.35,46.85c3.57,0,5.35-2.41,5.35-7.22c0-3.27-0.69-7.17-2.06-11.7
		c-1.38-4.53-3.18-8.55-5.42-12.06c-2.24-3.5-4.41-5.25-6.51-5.25c-3.48,0-5.22,2.47-5.22,7.42c0,3.78,0.68,7.93,2.03,12.44
		c1.35,4.51,3.14,8.37,5.35,11.57C169.09,45.25,171.25,46.85,173.35,46.85z"/>
	<path class="st2" d="M218.04,52.26c-6.1,0-10.97-1.52-14.6-4.55c-3.63-3.03-5.45-7.45-5.45-13.25V13.58c0-1.16-0.44-2.33-1.32-3.51
		c-0.88-1.18-1.32-2.05-1.32-2.61V7.19c0-0.9,0.54-1.35,1.61-1.35h15.8c1.07,0,1.61,0.45,1.61,1.35v0.26c0,0.56-0.49,1.43-1.48,2.61
		c-0.99,1.18-1.48,2.35-1.48,3.51v20.89c0,4.26,0.81,7.38,2.42,9.38c1.61,2,4.03,3,7.25,3c0.94,0,1.86-0.16,2.74-0.48
		c0.88-0.32,1.79-0.89,2.74-1.71c0.94-0.82,1.71-2.1,2.29-3.84c0.58-1.74,0.87-3.86,0.87-6.35V13.58c0-1.16-0.44-2.33-1.32-3.51
		c-0.88-1.18-1.32-2.05-1.32-2.61V7.19c0-0.9,0.54-1.35,1.61-1.35h8.83c1.07,0,1.61,0.45,1.61,1.35v0.26c0,0.56-0.49,1.43-1.48,2.61
		c-0.99,1.18-1.48,2.35-1.48,3.51V34.6c0,5.76-1.63,10.15-4.9,13.15C227.99,50.76,223.58,52.26,218.04,52.26z"/>
	<path class="st2" d="M263.82,52.26c-4.3,0-8.17-1.14-11.61-3.42c-3.44-2.28-6.06-5.24-7.87-8.9c-1.81-3.65-2.71-7.61-2.71-11.86
		c0-6.58,1.97-12.03,5.9-16.35c3.93-4.32,9.12-6.48,15.57-6.48c5.16,0,9.62,1.17,13.38,3.51c3.76,2.34,5.64,5.3,5.64,8.87
		c0,1.72-0.54,3.11-1.61,4.16c-1.07,1.05-2.56,1.58-4.45,1.58c-1.63,0-3.09-0.45-4.35-1.35c-1.27-0.9-2.3-1.99-3.09-3.26
		c-0.8-1.27-1.55-2.54-2.26-3.8c-0.71-1.27-1.56-2.35-2.55-3.26c-0.99-0.9-2.09-1.35-3.29-1.35c-1.68,0-3.12,0.85-4.32,2.55
		c-1.2,1.7-1.81,4.05-1.81,7.06c0,6.02,1.39,10.93,4.16,14.73c2.77,3.8,6.01,5.71,9.7,5.71c0.77,0,1.49-0.05,2.16-0.16
		c0.67-0.11,1.31-0.32,1.93-0.65c0.62-0.32,1.13-0.58,1.52-0.77c0.39-0.19,0.85-0.55,1.39-1.06c0.54-0.52,0.9-0.86,1.1-1.03
		c0.19-0.17,0.54-0.56,1.03-1.16c0.49-0.6,0.76-0.92,0.81-0.97c0.65-0.77,1.44-1.03,2.39-0.77c0.94,0.26,1.42,0.92,1.42,2
		c0,4.51-1.55,8.38-4.64,11.61C274.26,50.65,269.75,52.26,263.82,52.26z"/>
	<path class="st2" d="M287.35,51.62c-1.07,0-1.61-0.45-1.61-1.35v-0.26c0-0.56,0.44-1.43,1.32-2.61c0.88-1.18,1.32-2.35,1.32-3.51
		v-30.3c0-1.16-0.44-2.33-1.32-3.51c-0.88-1.18-1.32-2.05-1.32-2.61V7.19c0-0.9,0.54-1.35,1.61-1.35h15.67
		c1.07,0,1.61,0.45,1.61,1.35v0.26c0,0.56-0.48,1.43-1.45,2.61c-0.97,1.18-1.45,2.35-1.45,3.51v12.25h14.7l0.06-12.25
		c0-1.16-0.43-2.33-1.29-3.51c-0.86-1.18-1.29-2.05-1.29-2.61V7.19c0-0.9,0.52-1.35,1.55-1.35h15.67c1.07,0,1.61,0.45,1.61,1.35
		v0.26c0,0.56-0.49,1.43-1.48,2.61c-0.99,1.18-1.48,2.35-1.48,3.51v30.3c0,1.16,0.49,2.33,1.48,3.51c0.99,1.18,1.48,2.05,1.48,2.61
		v0.26c0,0.9-0.54,1.35-1.61,1.35h-15.67c-1.03,0-1.55-0.45-1.55-1.35v-0.26c0-0.56,0.43-1.43,1.29-2.61
		c0.86-1.18,1.29-2.35,1.29-3.51l-0.06-12.51h-14.7l-0.06,12.51c0,1.16,0.49,2.33,1.48,3.51c0.99,1.18,1.48,2.05,1.48,2.61v0.26
		c0,0.9-0.54,1.35-1.61,1.35H287.35z"/>
	<path class="st2" d="M358.86,52.26c-6.1,0-11.42-2.15-15.96-6.45c-4.54-4.3-6.8-9.89-6.8-16.76c0-7.13,2.08-12.9,6.25-17.28
		c4.17-4.38,9.67-6.58,16.51-6.58c6.19,0,11.55,2.24,16.09,6.71c4.53,4.47,6.8,10.19,6.8,17.15c0,6.96-2.19,12.57-6.58,16.83
		C370.79,50.14,365.35,52.26,358.86,52.26z M362.73,46.85c3.57,0,5.35-2.41,5.35-7.22c0-3.27-0.69-7.17-2.06-11.7
		c-1.38-4.53-3.18-8.55-5.42-12.06c-2.24-3.5-4.41-5.25-6.51-5.25c-3.48,0-5.22,2.47-5.22,7.42c0,3.78,0.68,7.93,2.03,12.44
		c1.35,4.51,3.14,8.37,5.35,11.57C358.46,45.25,360.62,46.85,362.73,46.85z"/>
	<path class="st2" d="M428.69,5.84c1.07,0,1.61,0.45,1.61,1.35v0.26c0,0.56-0.49,1.43-1.48,2.61c-0.99,1.18-1.48,2.35-1.48,3.51
		v34.69c0,2.24-1.12,3.35-3.35,3.35h-4.19c-1.33,0-2.58-0.75-3.74-2.26l-21.79-28.63v23.15c0,1.16,0.52,2.33,1.55,3.51
		c1.03,1.18,1.55,2.05,1.55,2.61v0.26c0,0.9-0.54,1.35-1.61,1.35h-8.96c-1.07,0-1.61-0.45-1.61-1.35v-0.26
		c0-0.56,0.44-1.43,1.32-2.61c0.88-1.18,1.32-2.35,1.32-3.51v-30.3c0-1.16-0.44-2.33-1.32-3.51c-0.88-1.18-1.32-2.05-1.32-2.61V7.19
		c0-0.9,0.54-1.35,1.61-1.35h10.96c1.38,0,2.62,0.75,3.74,2.26l19.41,26.95V13.58c0-1.16-0.48-2.33-1.45-3.51
		c-0.97-1.18-1.45-2.05-1.45-2.61V7.19c0-0.9,0.54-1.35,1.61-1.35H428.69z"/>
	<path class="st2" d="M453.51,52.26c-5.63,0-10.35-1.17-14.15-3.51c-3.8-2.34-5.71-5.1-5.71-8.29c0-3.44,1.72-5.16,5.16-5.16
		c1.38,0,2.56,0.42,3.55,1.26c0.99,0.84,1.83,1.86,2.51,3.06c0.69,1.2,1.39,2.41,2.1,3.61c0.71,1.2,1.65,2.22,2.84,3.06
		c1.18,0.84,2.59,1.26,4.22,1.26c1.59,0,2.83-0.39,3.71-1.16c0.88-0.77,1.32-1.85,1.32-3.22c0-1.55-0.45-2.87-1.35-3.97
		c-0.9-1.1-2.09-1.96-3.55-2.58c-1.46-0.62-3.07-1.2-4.84-1.74c-1.76-0.54-3.51-1.16-5.26-1.87c-1.74-0.71-3.34-1.57-4.8-2.58
		c-1.46-1.01-2.65-2.44-3.58-4.29c-0.92-1.85-1.39-4.04-1.39-6.58c0-4.3,1.64-7.76,4.93-10.38c3.29-2.62,7.6-3.93,12.93-3.93
		c5.2,0,9.67,1.18,13.41,3.55c3.74,2.36,5.59,5.12,5.55,8.25c0,1.63-0.46,2.92-1.39,3.87c-0.93,0.95-2.29,1.42-4.09,1.42
		c-1.59,0-2.93-0.43-4.03-1.29c-1.1-0.86-1.95-1.89-2.55-3.09c-0.6-1.2-1.19-2.42-1.77-3.64c-0.58-1.23-1.31-2.27-2.19-3.13
		c-0.88-0.86-1.95-1.29-3.19-1.29c-1.63,0-2.86,0.44-3.68,1.32c-0.82,0.88-1.23,2.05-1.23,3.51c0,1.85,0.45,3.42,1.35,4.71
		c0.9,1.29,2.07,2.29,3.51,3c1.44,0.71,3.04,1.34,4.8,1.9c1.76,0.56,3.51,1.18,5.25,1.87c1.74,0.69,3.33,1.49,4.77,2.42
		c1.44,0.92,2.61,2.24,3.51,3.93c0.9,1.7,1.35,3.75,1.35,6.16c0,4.21-1.73,7.52-5.19,9.93C462.91,51.06,458.63,52.26,453.51,52.26z"
		/>
</g>
</svg>
